<svg viewBox="0 0 40 40" fill="none" width="44" height="44" color="currentColor" xlmns="http://www.w3.org/2000/svg"><rect opacity="0.1" width="40" height="40" rx="20" fill="url(#paint0_radial_329:3512)"></rect><path d="M26.9585 19.4355C28.1432 19.1289 29.1972 18.2461 29.1972 16.4712C29.1972 13.5163 26.6787 12.8286 23.4513 12.8286H10.5976V26.1354H16.0077V21.6193H22.4252C23.414 21.6193 23.9923 22.0095 23.9923 22.976V26.1354H29.4024V22.8087C29.4024 20.9967 28.3764 19.8537 26.9585 19.4355ZM22.5185 18.0324H16.0077V16.7314H22.5185C23.2274 16.7314 23.6565 16.8244 23.6565 17.3819C23.6565 17.9395 23.2274 18.0324 22.5185 18.0324Z" fill="white"></path><path d="M26.9585 19.4355C28.1432 19.1289 29.1972 18.2461 29.1972 16.4712C29.1972 13.5163 26.6787 12.8286 23.4513 12.8286H10.5976V26.1354H16.0077V21.6193H22.4252C23.414 21.6193 23.9923 22.0095 23.9923 22.976V26.1354H29.4024V22.8087C29.4024 20.9967 28.3764 19.8537 26.9585 19.4355ZM22.5185 18.0324H16.0077V16.7314H22.5185C23.2274 16.7314 23.6565 16.8244 23.6565 17.3819C23.6565 17.9395 23.2274 18.0324 22.5185 18.0324Z" fill="url(#paint1_linear_329:3512)"></path><defs><radialGradient id="paint0_radial_329:3512" cx="0" cy="0" r="1" gradientUnits="userSpaceOnUse" gradientTransform="translate(9.35438 13.3566) rotate(57.6582) scale(24.3216 25.4403)"><stop stop-color="#0C50FF"></stop><stop offset="0.557292" stop-color="#5B9DFF"></stop><stop offset="1" stop-color="#FF74F1"></stop></radialGradient><linearGradient id="paint1_linear_329:3512" x1="10.0001" y1="12.5002" x2="20.9592" y2="27.0958" gradientUnits="userSpaceOnUse"><stop stop-color="#5988FF"></stop><stop offset="1" stop-color="#FF74F1"></stop></linearGradient></defs></svg>
